<svg xmlns="http://www.w3.org/2000/svg" width="16" height="16" viewBox="0 0 16 16" shape-rendering="crispEdges">
  <path fill="#24113c" d="M5 0h5v2h2v3h1v4h-2v3H9v3H4v-2h3v-3H5V8H3V4h2z"/>
  <path fill="#7540a5" d="M6 1h3v2h2v3h1v2h-2v3H8v3H5v-1h2V9H6V7H4V5h2z"/>
  <path fill="#ad68d5" d="M7 2h2v2h1v3H9v2H7V7H5V5h2z"/>
  <path fill="#d99cec" d="M7 3h1v3H6V5h1zm2 4h2v1H9zm-2 4h1v2H7z"/>
  <path fill="#52ddd5" d="M4 4h1v1H4zm6 2h1v1h-1zm-2 4h1v1H8zm-3 2h1v1H5z"/>
  <path fill="#160b27" d="M4 14h6v2H4z"/>
</svg>
